<?xml version="1.0" standalone="no"?>
<!DOCTYPE svg PUBLIC "-//W3C//DTD SVG 20010904//EN"
 "http://www.w3.org/TR/2001/REC-SVG-20010904/DTD/svg10.dtd">
<svg version="1.0" xmlns="http://www.w3.org/2000/svg"
 width="400.000000pt" height="400.000000pt" viewBox="0 0 400.000000 400.000000"
 preserveAspectRatio="xMidYMid meet">
<metadata>
Created by potrace 1.11, written by Peter Selinger 2001-2013
</metadata>
<g transform="translate(0.000000,400.000000) scale(0.100000,-0.100000)"
fill="#000000" stroke="none">
<path d="M0 2000 l0 -2000 2000 0 2000 0 0 2000 0 2000 -2000 0 -2000 0 0
-2000z m2045 1777 c55 -32 951 -546 1265 -726 l255 -146 0 -905 0 -905 -214
-122 c-117 -67 -247 -142 -290 -166 -42 -25 -186 -108 -321 -184 -135 -77
-356 -204 -492 -282 l-248 -142 -527 302 c-291 166 -644 368 -785 448 l-257
146 -1 905 0 905 223 126 c191 108 1186 678 1302 746 22 12 42 23 45 23 3 0
23 -11 45 -23z"/>
<path d="M1795 3343 c-110 -64 -229 -133 -265 -153 -36 -20 -139 -80 -230
-132 -91 -53 -255 -147 -365 -210 l-200 -115 0 -733 0 -733 200 -115 c110 -63
299 -172 420 -242 121 -69 316 -181 433 -249 l212 -122 273 157 c149 86 344
198 432 249 88 50 250 144 360 207 l200 115 0 733 0 733 -200 115 c-110 63
-272 157 -360 207 -88 50 -283 162 -432 248 -150 87 -274 157 -275 156 -2 0
-93 -52 -203 -116z m1065 -948 l225 -225 -540 -540 -540 -540 -540 540 -540
540 225 225 225 225 630 0 630 0 225 -225z"/>
</g>
</svg>
